<svg version="1.1" id="Layer_1" xmlns="http://www.w3.org/2000/svg" xmlns:xlink="http://www.w3.org/1999/xlink" x="0px" y="0px"
	 width="100%" viewBox="0 0 1254 1254" enable-background="new 0 0 1254 1254" xml:space="preserve">
<path fill="#000000" opacity="1.000000" stroke="none" 
	d="
M692.000000,1255.000000 
	C461.333344,1255.000000 231.166672,1255.000000 1.000000,1255.000000 
	C1.000000,837.000000 1.000000,419.000000 1.000000,1.000000 
	C419.000000,1.000000 837.000000,1.000000 1255.000000,1.000000 
	C1255.000000,419.000000 1255.000000,837.000000 1255.000000,1255.000000 
	C1067.500000,1255.000000 880.000000,1255.000000 692.000000,1255.000000 
M630.929810,489.209442 
	C630.948364,470.070007 630.981567,450.930542 630.942810,431.791229 
	C630.940857,430.828400 630.316528,429.866821 629.612976,428.330811 
	C612.750305,420.333984 595.906677,412.296814 579.017395,404.356445 
	C569.891541,400.066010 560.692322,395.931183 551.518311,391.743500 
	C528.795227,381.370972 506.085754,370.968384 483.334869,360.657135 
	C470.227386,354.716461 457.050049,348.929901 443.111450,343.429657 
	C443.073608,362.123260 443.023773,380.816895 443.038879,399.510468 
	C443.039551,400.309845 443.640778,401.108765 443.992462,402.855103 
	C443.936371,408.580872 443.880249,414.306610 443.129944,420.517761 
	C443.077698,434.190735 443.008331,447.863739 443.016846,461.536682 
	C443.017365,462.334015 443.648590,463.130981 444.011017,464.874176 
	C444.011017,607.062256 444.011017,749.250366 444.011017,891.444214 
	C445.335846,891.444214 446.091553,891.663635 446.625946,891.412415 
	C463.440857,883.507080 480.223785,875.533752 497.033478,867.617249 
	C517.646118,857.909851 538.293762,848.276794 558.896729,838.549072 
	C572.974854,831.902039 587.026550,825.197815 601.044556,818.425049 
	C610.726379,813.747437 620.330505,808.909119 630.801208,803.789917 
	C630.859497,790.560059 630.917786,777.330261 631.026184,763.182861 
	C630.702332,759.466553 630.378540,755.750305 630.848572,751.658325 
	C630.854126,740.076782 630.859680,728.495300 630.992798,715.994995 
	C630.950195,696.025391 630.907593,676.055786 631.024109,655.149841 
	C631.007996,616.800964 630.991882,578.452026 631.022034,539.153931 
	C630.995361,532.034607 630.968628,524.915222 630.978577,516.889526 
	C630.912048,507.978363 630.845581,499.067230 630.929810,489.209442 
M410.007446,213.011429 
	C410.007446,213.011429 410.070679,213.031174 409.710754,212.214951 
	C409.385559,212.147141 409.060394,212.020035 408.735168,212.019928 
	C364.124939,212.006409 319.514679,211.993561 274.904480,212.039749 
	C273.588013,212.041107 272.272217,212.668106 270.027496,212.916092 
	C262.194366,212.916092 254.361221,212.916092 246.528091,212.916092 
	C246.956787,214.503052 247.457245,214.843140 247.997452,215.099457 
	C264.521881,222.940659 281.058044,230.757202 297.575684,238.612671 
	C312.990173,245.943573 328.333588,253.426193 343.803619,260.637482 
	C360.498993,268.419952 377.277893,276.025360 394.078827,283.577881 
	C399.293182,285.921906 404.698303,287.841614 410.776672,289.547546 
	C410.853088,264.706299 410.937347,239.865051 410.965027,215.023743 
	C410.965790,214.333588 410.360107,213.642761 410.007446,213.011429 
M410.972565,1022.069824 
	C410.964325,997.858215 410.969208,973.646667 410.914520,949.435120 
	C410.911316,948.018677 410.426971,946.603271 409.410492,945.129822 
	C407.976990,945.525879 406.444916,945.716980 405.125977,946.351257 
	C396.382660,950.555847 387.731689,954.953735 378.963562,959.104858 
	C355.286102,970.314453 331.555969,981.412842 307.865051,992.594116 
	C294.678467,998.817871 281.481079,1005.022034 268.380157,1011.422607 
	C260.841736,1015.105591 253.486313,1019.163147 246.480591,1023.794617 
	C246.970810,1023.877686 247.460999,1024.033447 247.951218,1024.033569 
	C301.315491,1024.045044 354.679749,1024.050049 408.044006,1024.001953 
	C409.010284,1024.000854 409.975983,1023.353149 410.972565,1022.069824 
M1054.988403,721.107056 
	C1054.939209,712.392517 1054.890015,703.677979 1054.961060,694.041199 
	C1054.967407,665.729370 1054.974854,637.417603 1054.979980,609.105774 
	C1054.998291,509.150909 1055.021240,409.196045 1054.989746,309.241180 
	C1054.989258,307.437775 1054.333618,305.634552 1053.526245,303.439545 
	C1042.922241,308.130524 1032.262817,312.700745 1021.725220,317.536407 
	C996.006287,329.338837 970.356201,341.291199 944.655029,353.132355 
	C919.519104,364.713043 894.350708,376.223175 869.203186,387.778778 
	C852.246277,395.570679 835.311157,403.409973 818.347107,411.186218 
	C805.591675,417.033264 792.805786,422.813812 779.224670,429.082764 
	C779.129028,440.087067 779.015442,451.091309 778.983826,462.095795 
	C778.982056,462.731323 779.646545,463.368744 779.978577,464.941742 
	C779.970581,576.034912 779.975037,687.128113 779.899475,798.221191 
	C779.897034,801.854309 780.457703,804.322266 784.250977,806.039612 
	C803.402161,814.710144 822.422668,823.669495 841.482178,832.542053 
	C868.567993,845.150940 895.663818,857.738525 922.725098,870.399902 
	C944.083069,880.392822 965.390747,890.493042 986.729187,900.527710 
	C1002.827576,908.098145 1018.925903,915.669128 1035.051880,923.180725 
	C1041.303833,926.092957 1047.631714,928.842285 1055.125488,932.204346 
	C1054.606812,929.235046 1054.316162,927.570312 1054.808228,925.542969 
	C1054.868408,923.552185 1054.980713,921.561340 1054.981079,919.570557 
	C1054.988403,880.995178 1054.998901,842.419861 1054.973999,803.844482 
	C1054.956299,776.575134 1054.887085,749.305847 1054.988403,721.107056 
M409.991058,907.996582 
	C409.991058,907.996582 410.014099,908.055847 410.824127,907.695862 
	C410.894226,906.704163 411.025787,905.712463 411.025787,904.720764 
	C411.030334,714.002136 411.027924,523.283569 410.978668,332.564941 
	C410.978302,331.051697 410.336945,329.538635 409.665741,327.401581 
	C408.504333,326.764709 407.376007,326.056244 406.176575,325.501556 
	C379.786133,313.296814 353.360870,301.167023 327.002106,288.894318 
	C313.233826,282.483795 299.612000,275.759369 285.865417,269.301392 
	C272.248932,262.904572 258.559845,256.662262 244.900589,250.356522 
	C236.659882,246.552216 228.415390,242.756149 219.682388,238.355423 
	C214.888138,238.509491 217.102295,242.242889 217.100647,244.200653 
	C216.983673,383.512451 216.999893,522.824341 217.000168,662.136230 
	C217.000381,772.785889 216.990372,883.435486 217.036377,994.085144 
	C217.036942,995.433350 217.720963,996.781372 218.788467,997.966309 
	C229.020462,993.255798 239.304947,988.655457 249.472366,983.809509 
	C265.312866,976.259583 281.054382,968.502258 296.876862,960.914185 
	C304.921631,957.056213 313.057068,953.387451 321.142029,949.612854 
	C335.167816,943.064880 349.167358,936.460388 363.212708,929.954773 
	C378.544830,922.853210 393.916565,915.837158 409.615021,908.610229 
	C409.813660,908.437378 409.959595,908.227722 409.991058,907.996582 
M442.875854,301.772125 
	C443.863556,303.412262 444.455902,305.840363 445.902405,306.566132 
	C456.212067,311.739105 466.643555,316.679382 477.135559,321.476654 
	C498.505280,331.247498 519.993652,340.760040 541.328186,350.606354 
	C562.634399,360.439606 583.759949,370.664124 605.061340,380.508118 
	C626.331116,390.337585 647.737854,399.870239 669.050415,409.607788 
	C679.920166,414.574005 690.649902,419.853424 701.600464,424.630157 
	C703.707520,425.549255 706.912170,425.603973 708.995361,424.676300 
	C737.028442,412.192230 764.954956,399.468750 792.901001,386.789398 
	C797.506348,384.699890 802.078735,382.537628 807.417358,380.060486 
	C805.284851,378.785858 804.117798,377.897827 802.810547,377.336060 
	C787.774536,370.874634 772.706726,364.487183 757.668457,358.030914 
	C741.742554,351.193573 725.816101,344.356537 709.932800,337.421112 
	C694.606873,330.729034 679.357422,323.862000 664.034546,317.162811 
	C647.960999,310.135498 631.832764,303.233337 615.742615,296.243866 
	C605.467468,291.780365 595.236023,287.216064 584.951843,282.773621 
	C575.431885,278.661285 565.828857,274.739685 556.332214,270.575104 
	C541.644592,264.134125 527.051514,257.477081 512.354065,251.058929 
	C493.108734,242.654831 473.826996,234.332489 454.494934,226.130493 
	C451.158691,224.715042 447.494659,224.072052 443.156647,223.369537 
	C443.114807,249.266922 443.072968,275.164307 442.875854,301.772125 
M445.758087,1015.033630 
	C457.158417,1010.224976 468.628632,1005.574463 479.944824,1000.575317 
	C504.668854,989.652954 529.318115,978.561279 553.991089,967.523376 
	C566.957397,961.722656 579.934753,955.945740 592.861328,950.057678 
	C609.172363,942.627869 625.366272,934.937317 641.738342,927.645996 
	C664.125000,917.675903 686.662720,908.045532 709.079529,898.142456 
	C738.025085,885.355286 766.919739,872.452881 795.823608,859.571716 
	C799.767944,857.813904 803.638672,855.891174 808.317627,853.678772 
	C796.710083,847.987732 786.147156,842.606201 775.413635,837.589355 
	C754.297607,827.719971 733.128601,817.960083 711.858276,808.429749 
	C709.423462,807.338806 705.782288,807.011292 703.419800,808.018005 
	C692.501526,812.670410 681.841187,817.927246 671.081970,822.953918 
	C650.225159,832.697937 629.373657,842.453369 608.502319,852.166077 
	C580.672119,865.117126 552.806213,877.991760 524.992004,890.976990 
	C507.439606,899.171387 489.961548,907.524902 472.434479,915.773743 
	C463.571381,919.945068 454.673553,924.042603 444.964020,928.141663 
	C444.634979,929.135071 444.020660,930.127808 444.018555,931.121887 
	C443.961914,957.890381 443.954773,984.658997 444.007477,1011.427490 
	C444.009827,1012.611084 444.654510,1013.793396 445.758087,1015.033630 
M445.326782,186.424423 
	C449.686127,188.237839 454.090149,189.951828 458.395752,191.884903 
	C467.988251,196.191605 477.474152,200.739120 487.107483,204.950577 
	C504.395325,212.508392 521.758545,219.893784 539.092468,227.345963 
	C552.078613,232.928925 565.062988,238.516052 578.057861,244.078613 
	C591.964417,250.031464 605.909058,255.896347 619.785522,261.918457 
	C628.176758,265.560089 636.444153,269.486267 644.814148,273.178009 
	C654.366516,277.391266 663.983643,281.457306 673.549683,285.640045 
	C684.529419,290.440979 695.442139,295.397491 706.459106,300.110687 
	C723.314148,307.321442 740.286804,314.258698 757.110352,321.541138 
	C773.309204,328.553223 789.338623,335.956390 805.524109,343.000153 
	C818.925415,348.832306 832.429382,354.430511 845.938843,360.009003 
	C847.263062,360.555847 849.129761,360.722260 850.425903,360.228485 
	C854.289551,358.756744 858.012939,356.907257 861.758057,355.135315 
	C874.100586,349.295502 886.371216,343.300171 898.774780,337.593384 
	C920.936462,327.396973 943.169128,317.354736 965.383362,307.272827 
	C979.117310,301.039673 992.915344,294.945709 1006.596863,288.600189 
	C1012.372375,285.921509 1017.922119,282.756287 1023.932617,279.625671 
	C1008.699646,273.089630 993.979004,266.643677 979.156372,260.441498 
	C951.648804,248.931503 924.115417,237.481522 896.526733,226.167755 
	C879.910095,219.353485 863.117432,212.968552 846.499695,206.156998 
	C833.276917,200.737076 820.267761,194.795929 807.042053,189.383575 
	C784.716125,180.247162 762.287537,171.362045 739.914490,162.340546 
	C724.887634,156.281235 709.876953,150.181396 694.868896,144.075577 
	C686.388184,140.625305 677.938293,137.099228 669.454773,133.655746 
	C657.709900,128.888428 645.942139,124.177361 634.192749,119.421036 
	C628.311340,117.040169 622.427979,114.662033 616.582703,112.194626 
	C607.013245,108.155174 597.527588,103.912529 587.907776,99.998444 
	C577.498840,95.763275 566.912537,91.962639 556.520203,87.688812 
	C543.451660,82.314369 530.555725,76.520111 517.482849,71.156738 
	C507.445343,67.038673 497.203705,63.420551 487.135010,59.375568 
	C473.805054,54.020416 460.555206,48.465832 446.835754,42.277821 
	C442.665833,41.281567 444.055786,44.558163 444.053223,46.232643 
	C443.984375,91.461258 443.993195,136.690018 444.045837,181.918686 
	C444.047424,183.265564 444.661377,184.611710 445.326782,186.424423 
M444.171326,1052.429077 
	C444.117889,1052.923828 444.017822,1053.418701 444.017670,1053.913452 
	C444.004211,1103.149292 443.991302,1152.385010 444.033112,1201.620850 
	C444.034119,1202.816284 444.648804,1204.011353 445.460693,1205.547729 
	C453.292175,1202.098389 461.098206,1198.589844 468.959991,1195.210938 
	C491.395660,1185.568604 513.890015,1176.062134 536.290710,1166.339478 
	C551.146545,1159.891602 565.832703,1153.052979 580.680054,1146.584839 
	C610.668823,1133.520630 640.708313,1120.572754 670.740540,1107.608643 
	C695.242249,1097.031738 719.758972,1086.489502 744.278076,1075.952881 
	C764.977783,1067.057373 785.661133,1058.122925 806.406067,1049.333984 
	C825.190735,1041.375366 844.093323,1033.694580 862.857361,1025.688477 
	C873.647156,1021.084717 884.189270,1015.901184 894.975525,1011.288757 
	C917.233032,1001.771057 939.559631,992.413757 961.896667,983.083496 
	C975.201233,977.526123 988.629883,972.264343 1001.905457,966.640076 
	C1009.706116,963.335327 1017.316223,959.580566 1025.865356,955.634460 
	C1023.402832,954.207397 1021.794434,953.104370 1020.050781,952.291748 
	C1005.191040,945.367004 990.300171,938.509033 975.432983,931.600220 
	C969.423157,928.807373 963.478821,925.872620 957.452698,923.116028 
	C942.303223,916.186157 927.072205,909.432007 911.978577,902.383301 
	C904.383667,898.836426 897.105652,894.613525 889.526550,891.029968 
	C876.540405,884.889954 863.451782,878.964355 850.338806,873.099121 
	C849.061279,872.527710 847.092896,872.507629 845.817139,873.072083 
	C818.625244,885.104065 791.512573,897.314880 764.328735,909.365051 
	C745.271912,917.812500 726.079529,925.954956 707.045166,934.451721 
	C689.885071,942.111755 672.894958,950.151550 655.760315,957.869324 
	C640.503662,964.741272 625.138428,971.371887 609.844971,978.162598 
	C591.131470,986.471985 572.443909,994.839539 553.743164,1003.177734 
	C536.805176,1010.729980 519.846497,1018.236328 502.929688,1025.835938 
	C483.581482,1034.527954 464.269440,1043.300537 444.171326,1052.429077 
z"/>
<path fill="#11263C" opacity="1.000000" stroke="none" 
	d="
M1054.025391,925.905579 
	C1054.316162,927.570312 1054.606812,929.235046 1055.125488,932.204346 
	C1047.631714,928.842285 1041.303833,926.092957 1035.051880,923.180725 
	C1018.925903,915.669128 1002.827576,908.098145 986.729187,900.527710 
	C965.390747,890.493042 944.083069,880.392822 922.725098,870.399902 
	C895.663818,857.738525 868.567993,845.150940 841.482178,832.542053 
	C822.422668,823.669495 803.402161,814.710144 784.250977,806.039612 
	C780.457703,804.322266 779.897034,801.854309 779.899475,798.221191 
	C779.975037,687.128113 779.970581,576.034912 780.034424,464.006226 
	C780.071350,451.588470 780.052368,440.106262 780.033447,428.624023 
	C792.805786,422.813812 805.591675,417.033264 818.347107,411.186218 
	C835.311157,403.409973 852.246277,395.570679 869.203186,387.778778 
	C894.350708,376.223175 919.519104,364.713043 944.655029,353.132355 
	C970.356201,341.291199 996.006287,329.338837 1021.725220,317.536407 
	C1032.262817,312.700745 1042.922241,308.130524 1053.735107,304.114716 
	C1053.957397,316.274963 1053.980591,327.760071 1053.982788,339.245148 
	C1053.993408,395.201019 1053.974243,451.156921 1054.014038,507.112762 
	C1054.039673,543.079041 1054.178101,579.045349 1054.211182,615.011658 
	C1054.235596,641.646973 1054.171631,668.282410 1054.084717,695.388245 
	C1054.063477,704.599854 1054.104736,713.341003 1054.099121,722.543579 
	C1054.043213,790.638489 1054.034302,858.272034 1054.025391,925.905579 
z"/>
<path fill="#11263C" opacity="1.000000" stroke="none" 
	d="
M409.271057,908.783813 
	C393.916565,915.837158 378.544830,922.853210 363.212708,929.954773 
	C349.167358,936.460388 335.167816,943.064880 321.142029,949.612854 
	C313.057068,953.387451 304.921631,957.056213 296.876862,960.914185 
	C281.054382,968.502258 265.312866,976.259583 249.472366,983.809509 
	C239.304947,988.655457 229.020462,993.255798 218.409271,997.567871 
	C218.019257,805.872192 218.007523,614.574951 217.998154,423.277740 
	C217.995239,363.788910 217.978104,304.300079 218.090729,244.811462 
	C218.094421,242.858459 219.448166,240.908020 220.172592,238.956375 
	C228.415390,242.756149 236.659882,246.552216 244.900589,250.356522 
	C258.559845,256.662262 272.248932,262.904572 285.865417,269.301392 
	C299.612000,275.759369 313.233826,282.483795 327.002106,288.894318 
	C353.360870,301.167023 379.786133,313.296814 406.176575,325.501556 
	C407.376007,326.056244 408.504333,326.764709 409.844604,328.179688 
	C410.029663,337.618561 410.041687,346.279358 410.041321,354.940125 
	C410.033081,539.312012 410.023438,723.683960 410.014099,908.055847 
	C410.014099,908.055847 409.991058,907.996582 409.856079,908.086121 
	C409.502716,908.327759 409.352692,908.530457 409.271057,908.783813 
z"/>
<path fill="#11263C" opacity="1.000000" stroke="none" 
	d="
M443.824158,420.032379 
	C443.880249,414.306610 443.936371,408.580872 443.992706,401.918335 
	C443.963348,381.679047 443.933777,362.376526 443.904175,343.073975 
	C457.050049,348.929901 470.227386,354.716461 483.334869,360.657135 
	C506.085754,370.968384 528.795227,381.370972 551.518311,391.743500 
	C560.692322,395.931183 569.891541,400.066010 579.017395,404.356445 
	C595.906677,412.296814 612.750305,420.333984 629.749634,429.090637 
	C629.936096,432.008789 630.021484,434.166962 630.029968,436.325500 
	C630.100220,454.261047 630.156311,472.196655 630.136047,490.583038 
	C630.019104,498.814301 629.941772,506.595093 629.991516,514.375000 
	C629.998840,515.517273 630.610168,516.655701 630.941956,517.795898 
	C630.968628,524.915222 630.995361,532.034607 630.580872,539.763062 
	C630.086975,553.167725 629.987366,565.963135 629.991394,578.758606 
	C629.999451,604.531921 630.063904,630.305298 630.040039,656.536377 
	C630.017639,676.970093 630.060425,696.946106 630.019775,717.391174 
	C629.975769,729.251465 630.015198,740.642761 630.054688,752.033997 
	C630.378540,755.750305 630.702332,759.466553 630.584595,763.777954 
	C630.085144,777.629578 630.027283,790.886108 629.969360,804.142578 
	C620.330505,808.909119 610.726379,813.747437 601.044556,818.425049 
	C587.026550,825.197815 572.974854,831.902039 558.896729,838.549072 
	C538.293762,848.276794 517.646118,857.909851 497.033478,867.617249 
	C480.223785,875.533752 463.440857,883.507080 446.625946,891.412415 
	C446.091553,891.663635 445.335846,891.444214 444.011017,891.444214 
	C444.011017,749.250366 444.011017,607.062256 444.011292,463.936829 
	C443.949097,448.677124 443.886627,434.354736 443.824158,420.032379 
z"/>
<path fill="#12273D" opacity="1.000000" stroke="none" 
	d="
M444.941681,1052.038086 
	C464.269440,1043.300537 483.581482,1034.527954 502.929688,1025.835938 
	C519.846497,1018.236328 536.805176,1010.729980 553.743164,1003.177734 
	C572.443909,994.839539 591.131470,986.471985 609.844971,978.162598 
	C625.138428,971.371887 640.503662,964.741272 655.760315,957.869324 
	C672.894958,950.151550 689.885071,942.111755 707.045166,934.451721 
	C726.079529,925.954956 745.271912,917.812500 764.328735,909.365051 
	C791.512573,897.314880 818.625244,885.104065 845.817139,873.072083 
	C847.092896,872.507629 849.061279,872.527710 850.338806,873.099121 
	C863.451782,878.964355 876.540405,884.889954 889.526550,891.029968 
	C897.105652,894.613525 904.383667,898.836426 911.978577,902.383301 
	C927.072205,909.432007 942.303223,916.186157 957.452698,923.116028 
	C963.478821,925.872620 969.423157,928.807373 975.432983,931.600220 
	C990.300171,938.509033 1005.191040,945.367004 1020.050781,952.291748 
	C1021.794434,953.104370 1023.402832,954.207397 1025.865356,955.634460 
	C1017.316223,959.580566 1009.706116,963.335327 1001.905457,966.640076 
	C988.629883,972.264343 975.201233,977.526123 961.896667,983.083496 
	C939.559631,992.413757 917.233032,1001.771057 894.975525,1011.288757 
	C884.189270,1015.901184 873.647156,1021.084717 862.857361,1025.688477 
	C844.093323,1033.694580 825.190735,1041.375366 806.406067,1049.333984 
	C785.661133,1058.122925 764.977783,1067.057373 744.278076,1075.952881 
	C719.758972,1086.489502 695.242249,1097.031738 670.740540,1107.608643 
	C640.708313,1120.572754 610.668823,1133.520630 580.680054,1146.584839 
	C565.832703,1153.052979 551.146545,1159.891602 536.290710,1166.339478 
	C513.890015,1176.062134 491.395660,1185.568604 468.959991,1195.210938 
	C461.098206,1198.589844 453.292175,1202.098389 445.258423,1204.895508 
	C445.018005,1153.508179 444.979828,1102.773071 444.941681,1052.038086 
z"/>
<path fill="#11263C" opacity="1.000000" stroke="none" 
	d="
M447.270935,42.996948 
	C460.555206,48.465832 473.805054,54.020416 487.135010,59.375568 
	C497.203705,63.420551 507.445343,67.038673 517.482849,71.156738 
	C530.555725,76.520111 543.451660,82.314369 556.520203,87.688812 
	C566.912537,91.962639 577.498840,95.763275 587.907776,99.998444 
	C597.527588,103.912529 607.013245,108.155174 616.582703,112.194626 
	C622.427979,114.662033 628.311340,117.040169 634.192749,119.421036 
	C645.942139,124.177361 657.709900,128.888428 669.454773,133.655746 
	C677.938293,137.099228 686.388184,140.625305 694.868896,144.075577 
	C709.876953,150.181396 724.887634,156.281235 739.914490,162.340546 
	C762.287537,171.362045 784.716125,180.247162 807.042053,189.383575 
	C820.267761,194.795929 833.276917,200.737076 846.499695,206.156998 
	C863.117432,212.968552 879.910095,219.353485 896.526733,226.167755 
	C924.115417,237.481522 951.648804,248.931503 979.156372,260.441498 
	C993.979004,266.643677 1008.699646,273.089630 1023.932617,279.625671 
	C1017.922119,282.756287 1012.372375,285.921509 1006.596863,288.600189 
	C992.915344,294.945709 979.117310,301.039673 965.383362,307.272827 
	C943.169128,317.354736 920.936462,327.396973 898.774780,337.593384 
	C886.371216,343.300171 874.100586,349.295502 861.758057,355.135315 
	C858.012939,356.907257 854.289551,358.756744 850.425903,360.228485 
	C849.129761,360.722260 847.263062,360.555847 845.938843,360.009003 
	C832.429382,354.430511 818.925415,348.832306 805.524109,343.000153 
	C789.338623,335.956390 773.309204,328.553223 757.110352,321.541138 
	C740.286804,314.258698 723.314148,307.321442 706.459106,300.110687 
	C695.442139,295.397491 684.529419,290.440979 673.549683,285.640045 
	C663.983643,281.457306 654.366516,277.391266 644.814148,273.178009 
	C636.444153,269.486267 628.176758,265.560089 619.785522,261.918457 
	C605.909058,255.896347 591.964417,250.031464 578.057861,244.078613 
	C565.062988,238.516052 552.078613,232.928925 539.092468,227.345963 
	C521.758545,219.893784 504.395325,212.508392 487.107483,204.950577 
	C477.474152,200.739120 467.988251,196.191605 458.395752,191.884903 
	C454.090149,189.951828 449.686127,188.237839 445.154236,185.725693 
	C444.970734,170.198151 444.951721,155.369354 444.950500,140.540543 
	C444.947937,109.882988 444.914642,79.225243 445.056885,48.568325 
	C445.065552,46.707813 446.499908,44.853916 447.270935,42.996948 
z"/>
<path fill="#12273D" opacity="1.000000" stroke="none" 
	d="
M445.791443,928.173523 
	C454.673553,924.042603 463.571381,919.945068 472.434479,915.773743 
	C489.961548,907.524902 507.439606,899.171387 524.992004,890.976990 
	C552.806213,877.991760 580.672119,865.117126 608.502319,852.166077 
	C629.373657,842.453369 650.225159,832.697937 671.081970,822.953918 
	C681.841187,817.927246 692.501526,812.670410 703.419800,808.018005 
	C705.782288,807.011292 709.423462,807.338806 711.858276,808.429749 
	C733.128601,817.960083 754.297607,827.719971 775.413635,837.589355 
	C786.147156,842.606201 796.710083,847.987732 808.317627,853.678772 
	C803.638672,855.891174 799.767944,857.813904 795.823608,859.571716 
	C766.919739,872.452881 738.025085,885.355286 709.079529,898.142456 
	C686.662720,908.045532 664.125000,917.675903 641.738342,927.645996 
	C625.366272,934.937317 609.172363,942.627869 592.861328,950.057678 
	C579.934753,955.945740 566.957397,961.722656 553.991089,967.523376 
	C529.318115,978.561279 504.668854,989.652954 479.944824,1000.575317 
	C468.628632,1005.574463 457.158417,1010.224976 445.398682,1014.538574 
	C445.017334,987.194214 444.979797,960.344788 445.008728,933.495483 
	C445.010651,931.721191 445.518768,929.947510 445.791443,928.173523 
z"/>
<path fill="#11263C" opacity="1.000000" stroke="none" 
	d="
M443.982056,223.072250 
	C447.494659,224.072052 451.158691,224.715042 454.494934,226.130493 
	C473.826996,234.332489 493.108734,242.654831 512.354065,251.058929 
	C527.051514,257.477081 541.644592,264.134125 556.332214,270.575104 
	C565.828857,274.739685 575.431885,278.661285 584.951843,282.773621 
	C595.236023,287.216064 605.467468,291.780365 615.742615,296.243866 
	C631.832764,303.233337 647.960999,310.135498 664.034546,317.162811 
	C679.357422,323.862000 694.606873,330.729034 709.932800,337.421112 
	C725.816101,344.356537 741.742554,351.193573 757.668457,358.030914 
	C772.706726,364.487183 787.774536,370.874634 802.810547,377.336060 
	C804.117798,377.897827 805.284851,378.785858 807.417358,380.060486 
	C802.078735,382.537628 797.506348,384.699890 792.901001,386.789398 
	C764.954956,399.468750 737.028442,412.192230 708.995361,424.676300 
	C706.912170,425.603973 703.707520,425.549255 701.600464,424.630157 
	C690.649902,419.853424 679.920166,414.574005 669.050415,409.607788 
	C647.737854,399.870239 626.331116,390.337585 605.061340,380.508118 
	C583.759949,370.664124 562.634399,360.439606 541.328186,350.606354 
	C519.993652,340.760040 498.505280,331.247498 477.135559,321.476654 
	C466.643555,316.679382 456.212067,311.739105 445.902405,306.566132 
	C444.455902,305.840363 443.863556,303.412262 443.353699,301.229736 
	C443.881683,274.815643 443.931885,248.943939 443.982056,223.072250 
z"/>
<path fill="#12273D" opacity="1.000000" stroke="none" 
	d="
M410.016113,289.955566 
	C404.698303,287.841614 399.293182,285.921906 394.078827,283.577881 
	C377.277893,276.025360 360.498993,268.419952 343.803619,260.637482 
	C328.333588,253.426193 312.990173,245.943573 297.575684,238.612671 
	C281.058044,230.757202 264.521881,222.940659 247.997452,215.099457 
	C247.457245,214.843140 246.956787,214.503052 246.528091,212.916092 
	C254.361221,212.916092 262.194366,212.916092 270.960999,213.010040 
	C317.953217,213.079712 364.011963,213.055435 410.070679,213.031174 
	C410.070679,213.031174 410.007446,213.011429 409.997437,213.452881 
	C409.997009,239.248062 410.006561,264.601807 410.016113,289.955566 
z"/>
<path fill="#11263C" opacity="1.000000" stroke="none" 
	d="
M246.048508,1023.052063 
	C253.486313,1019.163147 260.841736,1015.105591 268.380157,1011.422607 
	C281.481079,1005.022034 294.678467,998.817871 307.865051,992.594116 
	C331.555969,981.412842 355.286102,970.314453 378.963562,959.104858 
	C387.731689,954.953735 396.382660,950.555847 405.125977,946.351257 
	C406.444916,945.716980 407.976990,945.525879 409.766541,945.611694 
	C410.036743,971.695984 409.950928,997.298340 409.406189,1022.936462 
	C354.647705,1022.998840 300.348114,1023.025452 246.048508,1023.052063 
z"/>
<path fill="#213447" opacity="1.000000" stroke="none" 
	d="
M219.927490,238.655899 
	C219.448166,240.908020 218.094421,242.858459 218.090729,244.811462 
	C217.978104,304.300079 217.995239,363.788910 217.998154,423.277740 
	C218.007523,614.574951 218.019257,805.872192 218.058029,997.649414 
	C217.720963,996.781372 217.036942,995.433350 217.036377,994.085144 
	C216.990372,883.435486 217.000381,772.785889 217.000168,662.136230 
	C216.999893,522.824341 216.983673,383.512451 217.100647,244.200653 
	C217.102295,242.242889 214.888138,238.509491 219.927490,238.655899 
z"/>
<path fill="#6B7686" opacity="1.000000" stroke="none" 
	d="
M410.419128,907.875854 
	C410.023438,723.683960 410.033081,539.312012 410.041321,354.940125 
	C410.041687,346.279358 410.029663,337.618561 410.009155,328.491638 
	C410.336945,329.538635 410.978302,331.051697 410.978668,332.564941 
	C411.027924,523.283569 411.030334,714.002136 411.025787,904.720764 
	C411.025787,905.712463 410.894226,906.704163 410.419128,907.875854 
z"/>
<path fill="#ACADB9" opacity="1.000000" stroke="none" 
	d="
M1054.147217,694.917786 
	C1054.171631,668.282410 1054.235596,641.646973 1054.211182,615.011658 
	C1054.178101,579.045349 1054.039673,543.079041 1054.014038,507.112762 
	C1053.974243,451.156921 1053.993408,395.201019 1053.982788,339.245148 
	C1053.980591,327.760071 1053.957397,316.274963 1053.963867,304.310547 
	C1054.333618,305.634552 1054.989258,307.437775 1054.989746,309.241180 
	C1055.021240,409.196045 1054.998291,509.150909 1054.979980,609.105774 
	C1054.974854,637.417603 1054.967407,665.729370 1054.727173,694.497437 
	C1054.493286,694.953613 1054.147217,694.917786 1054.147217,694.917786 
z"/>
<path fill="#ACADB9" opacity="1.000000" stroke="none" 
	d="
M1054.416748,925.724243 
	C1054.034302,858.272034 1054.043213,790.638489 1054.272339,722.525757 
	C1054.492554,722.046631 1054.840820,722.036499 1054.840820,722.036499 
	C1054.887085,749.305847 1054.956299,776.575134 1054.973999,803.844482 
	C1054.998901,842.419861 1054.988403,880.995178 1054.981079,919.570557 
	C1054.980713,921.561340 1054.868408,923.552185 1054.416748,925.724243 
z"/>
<path fill="#6B7686" opacity="1.000000" stroke="none" 
	d="
M246.264557,1023.423340 
	C300.348114,1023.025452 354.647705,1022.998840 409.676178,1022.955566 
	C410.584015,1022.961609 410.762970,1022.984436 410.941956,1023.007202 
	C409.975983,1023.353149 409.010284,1024.000854 408.044006,1024.001953 
	C354.679749,1024.050049 301.315491,1024.045044 247.951218,1024.033569 
	C247.460999,1024.033447 246.970810,1023.877686 246.264557,1023.423340 
z"/>
<path fill="#6B7686" opacity="1.000000" stroke="none" 
	d="
M444.556519,1052.233643 
	C444.979828,1102.773071 445.018005,1153.508179 445.016724,1204.724854 
	C444.648804,1204.011353 444.034119,1202.816284 444.033112,1201.620850 
	C443.991302,1152.385010 444.004211,1103.149292 444.017670,1053.913452 
	C444.017822,1053.418701 444.117889,1052.923828 444.556519,1052.233643 
z"/>
<path fill="#516271" opacity="1.000000" stroke="none" 
	d="
M447.053345,42.637383 
	C446.499908,44.853916 445.065552,46.707813 445.056885,48.568325 
	C444.914642,79.225243 444.947937,109.882988 444.950500,140.540543 
	C444.951721,155.369354 444.970734,170.198151 444.985718,185.492584 
	C444.661377,184.611710 444.047424,183.265564 444.045837,181.918686 
	C443.993195,136.690018 443.984375,91.461258 444.053223,46.232643 
	C444.055786,44.558163 442.665833,41.281567 447.053345,42.637383 
z"/>
<path fill="#FDFEFF" opacity="1.000000" stroke="none" 
	d="
M409.890717,212.623062 
	C364.011963,213.055435 317.953217,213.079712 271.425293,213.053696 
	C272.272217,212.668106 273.588013,212.041107 274.904480,212.039749 
	C319.514679,211.993561 364.124939,212.006409 408.735168,212.019928 
	C409.060394,212.020035 409.385559,212.147141 409.890717,212.623062 
z"/>
<path fill="#BEDCDC" opacity="1.000000" stroke="none" 
	d="
M630.105164,656.078613 
	C630.063904,630.305298 629.999451,604.531921 629.991394,578.758606 
	C629.987366,565.963135 630.086975,553.167725 630.557739,540.237671 
	C630.991882,578.452026 631.007996,616.800964 630.754700,655.598328 
	C630.485291,656.046814 630.105164,656.078613 630.105164,656.078613 
z"/>
<path fill="#516271" opacity="1.000000" stroke="none" 
	d="
M445.377747,928.157593 
	C445.518768,929.947510 445.010651,931.721191 445.008728,933.495483 
	C444.979797,960.344788 445.017334,987.194214 445.019653,1014.509949 
	C444.654510,1013.793396 444.009827,1012.611084 444.007477,1011.427490 
	C443.954773,984.658997 443.961914,957.890381 444.018555,931.121887 
	C444.020660,930.127808 444.634979,929.135071 445.377747,928.157593 
z"/>
<path fill="#FDFEFF" opacity="1.000000" stroke="none" 
	d="
M443.569336,223.220886 
	C443.931885,248.943939 443.881683,274.815643 443.431335,300.874512 
	C443.072968,275.164307 443.114807,249.266922 443.569336,223.220886 
z"/>
<path fill="#516271" opacity="1.000000" stroke="none" 
	d="
M410.957275,1022.538513 
	C410.762970,1022.984436 410.584015,1022.961609 410.135071,1022.919800 
	C409.950928,997.298340 410.036743,971.695984 410.144562,945.640503 
	C410.426971,946.603271 410.911316,948.018677 410.914520,949.435120 
	C410.969208,973.646667 410.964325,997.858215 410.957275,1022.538513 
z"/>
<path fill="#6B7686" opacity="1.000000" stroke="none" 
	d="
M410.396362,289.751526 
	C410.006561,264.601807 409.997009,239.248062 410.012329,213.423279 
	C410.360107,213.642761 410.965790,214.333588 410.965027,215.023743 
	C410.937347,239.865051 410.853088,264.706299 410.396362,289.751526 
z"/>
<path fill="#FDFEFF" opacity="1.000000" stroke="none" 
	d="
M630.040039,656.536377 
	C630.105164,656.078613 630.485291,656.046814 630.675171,656.066528 
	C630.907593,676.055786 630.950195,696.025391 630.738647,716.473999 
	C630.484436,716.952942 630.103149,716.922119 630.103149,716.922119 
	C630.060425,696.946106 630.017639,676.970093 630.040039,656.536377 
z"/>
<path fill="#BEDCDC" opacity="1.000000" stroke="none" 
	d="
M630.216675,490.132263 
	C630.156311,472.196655 630.100220,454.261047 630.029968,436.325500 
	C630.021484,434.166962 629.936096,432.008789 629.934204,429.377563 
	C630.316528,429.866821 630.940857,430.828400 630.942810,431.791229 
	C630.981567,450.930542 630.948364,470.070007 630.712891,489.699768 
	C630.495911,490.190125 630.216675,490.132263 630.216675,490.132263 
z"/>
<path fill="#FDFEFF" opacity="1.000000" stroke="none" 
	d="
M443.507812,343.251831 
	C443.933777,362.376526 443.963348,381.679047 443.977600,401.444763 
	C443.640778,401.108765 443.039551,400.309845 443.038879,399.510468 
	C443.023773,380.816895 443.073608,362.123260 443.507812,343.251831 
z"/>
<path fill="#ACADB9" opacity="1.000000" stroke="none" 
	d="
M443.477051,420.275085 
	C443.886627,434.354736 443.949097,448.677124 443.998962,463.463806 
	C443.648590,463.130981 443.017365,462.334015 443.016846,461.536682 
	C443.008331,447.863739 443.077698,434.190735 443.477051,420.275085 
z"/>
<path fill="#BEDCDC" opacity="1.000000" stroke="none" 
	d="
M630.385254,803.966248 
	C630.027283,790.886108 630.085144,777.629578 630.559570,764.236755 
	C630.917786,777.330261 630.859497,790.560059 630.385254,803.966248 
z"/>
<path fill="#BEDCDC" opacity="1.000000" stroke="none" 
	d="
M630.019714,717.391174 
	C630.103149,716.922119 630.484436,716.952942 630.674866,716.933350 
	C630.859680,728.495300 630.854126,740.076782 630.451660,751.846191 
	C630.015198,740.642761 629.975769,729.251465 630.019714,717.391174 
z"/>
<path fill="#ACADB9" opacity="1.000000" stroke="none" 
	d="
M779.629028,428.853394 
	C780.052368,440.106262 780.071350,451.588470 780.045654,463.537994 
	C779.646545,463.368744 778.982056,462.731323 778.983826,462.095795 
	C779.015442,451.091309 779.129028,440.087067 779.629028,428.853394 
z"/>
<path fill="#FDFEFF" opacity="1.000000" stroke="none" 
	d="
M630.136047,490.583038 
	C630.216675,490.132263 630.495911,490.190125 630.637451,490.173096 
	C630.845581,499.067230 630.912048,507.978363 630.960266,517.342712 
	C630.610168,516.655701 629.998840,515.517273 629.991516,514.375000 
	C629.941772,506.595093 630.019104,498.814301 630.136047,490.583038 
z"/>
<path fill="#6B7686" opacity="1.000000" stroke="none" 
	d="
M1054.914551,721.571777 
	C1054.840820,722.036499 1054.492554,722.046631 1054.319336,722.064392 
	C1054.104736,713.341003 1054.063477,704.599854 1054.084717,695.388245 
	C1054.147217,694.917786 1054.493286,694.953613 1054.666992,694.958496 
	C1054.890015,703.677979 1054.939209,712.392517 1054.914551,721.571777 
z"/>
<path fill="#6B7686" opacity="1.000000" stroke="none" 
	d="
M409.443054,908.697021 
	C409.352692,908.530457 409.502716,908.327759 409.886963,908.078491 
	C409.959595,908.227722 409.813660,908.437378 409.443054,908.697021 
z"/>
</svg>